<?xml version="1.0" encoding="UTF-8"?><svg id="Layer_1" xmlns="http://www.w3.org/2000/svg" viewBox="0 0 850.39 184.86"><defs><style>.cls-1{fill:#575756;}.cls-2{fill:#ce2616;}</style></defs><g><path class="cls-1" d="M329.63,58.4c-.68-2.09-2.17-3.86-4.41-5.26-2.1-1.31-4.55-1.98-7.27-1.98s-5.3,.67-7.37,2c-2.18,1.41-3.63,3.17-4.24,5.06l-25.81,65.66c-.53,1.63-.74,4.19,1.27,7.1,1.48,2.15,3.84,3.61,7.05,4.36,1.03,.23,2.04,.35,3.02,.35,1.69,0,3.3-.35,4.8-1.04,2.5-1.15,4.2-2.83,5.09-5.1l4.08-11.62h23.93l3.94,11.43c.73,2.25,2.41,3.99,4.98,5.17,2.37,1.09,5.04,1.33,7.98,.69,3.2-.75,5.56-2.24,7-4.41,1.92-2.91,1.7-5.43,1.17-7.04l-25.22-65.37Zm-6.2,41.34h-11.17l5.66-15.98,5.51,15.98Z"/><path class="cls-1" d="M420.31,62.72c-3.16-3.2-7.2-5.76-11.99-7.61-4.74-1.83-10.36-2.76-16.69-2.76h-16.94c-3.22,0-5.87,.83-7.87,2.46-2.74,2.24-3.32,4.72-3.32,6.41V125.74c0,1.69,.58,4.17,3.32,6.4,2,1.63,4.65,2.46,7.87,2.46h16.94c6.31,0,11.9-.86,16.62-2.56,4.8-1.73,8.85-4.16,12.02-7.24,3.19-3.1,5.58-6.77,7.11-10.93,1.48-4.05,2.24-8.45,2.24-13.08v-13.12c0-4.76-.75-9.32-2.22-13.56-1.51-4.35-3.89-8.19-7.08-11.41Zm-12.68,23.78v15.6c0,4.44-1.29,7.67-3.93,9.87-2.79,2.32-6.85,3.49-12.07,3.49h-6.15v-43.98h6.15c5.21,0,9.11,1.29,11.91,3.94,2.75,2.61,4.09,6.23,4.09,11.08Z"/><path class="cls-1" d="M486.06,71.49c3.28,0,5.9-.86,7.79-2.56,1.96-1.76,3-4.15,3-6.89,0-2.89-1.04-5.36-3-7.13h0c-1.89-1.7-4.51-2.56-7.79-2.56h-36.9c-3.11,0-5.72,.82-7.77,2.43-2.83,2.24-3.42,4.73-3.42,6.44V125.74c0,1.7,.59,4.2,3.42,6.44,2.04,1.61,4.65,2.43,7.77,2.43h36.9c3.28,0,5.9-.86,7.79-2.56,1.96-1.77,3-4.15,3-6.89,0-2.89-1.04-5.36-3-7.13-1.89-1.7-4.51-2.56-7.79-2.56h-26.11v-12.89h16.39c3.37,0,6.03-.86,7.93-2.56,1.96-1.77,3-4.15,3-6.89,0-2.9-1.04-5.36-3-7.12-1.89-1.7-4.56-2.57-7.93-2.57h-16.39v-11.94h26.11Z"/><path class="cls-1" d="M585.33,53.62c-1.99-1.63-4.63-2.45-7.65-2.45h-.03l-2.18-.12c-2.88-.1-5.35,.42-7.37,1.54-1.93,1.07-3.49,2.46-4.65,4.13l-16.59,30.03-16.5-29.9c-1.11-1.77-2.7-3.19-4.74-4.22-1.95-.98-4.35-1.47-7.13-1.47h-2.23c-3.12,0-5.73,.82-7.77,2.43-2.83,2.24-3.42,4.73-3.42,6.44V126.92c0,1.7,.59,4.2,3.43,6.44,2.04,1.61,4.65,2.43,7.76,2.43s5.61-.84,7.58-2.49c2.66-2.24,3.21-4.7,3.21-6.37v-36.21l8.35,15.77,.17,.29c.99,1.48,2.35,2.89,4.03,4.17,1.98,1.51,4.42,2.27,7.26,2.27s5.4-.76,7.39-2.27c1.73-1.32,3.07-2.77,4.07-4.44l8.49-15.89v36.32c0,1.68,.56,4.14,3.21,6.37,1.97,1.65,4.47,2.49,7.45,2.49,3.22,0,5.86-.83,7.87-2.46,2.74-2.24,3.32-4.72,3.32-6.41V60.02c0-1.68-.58-4.16-3.32-6.4Z"/><path class="cls-1" d="M615.54,53.62c-2-1.63-4.51-2.46-7.47-2.46-3.23,0-5.87,.83-7.87,2.46-2.74,2.24-3.32,4.72-3.32,6.41V126.81c0,1.69,.58,4.17,3.32,6.41,2,1.63,4.65,2.46,7.87,2.46,2.96,0,5.47-.83,7.47-2.46,2.74-2.24,3.32-4.72,3.32-6.41V60.02c0-1.68-.58-4.16-3.32-6.4Z"/><path class="cls-1" d="M652.41,73.2c2.43-2.03,5.28-3.02,8.72-3.02,2.15,0,3.89,.22,5.17,.65,1.41,.48,2.75,1.07,3.92,1.73,1.71,1,3.23,1.7,4.62,2.14,1.45,.45,3.11,.68,4.93,.68,2.19,0,4.14-.69,5.78-2.06,1.27-1.04,2.78-2.97,2.78-6.21,0-2.41-.84-4.69-2.49-6.78-1.45-1.84-3.47-3.47-5.99-4.86-2.4-1.32-5.21-2.38-8.36-3.15-3.13-.77-6.58-1.16-10.25-1.16-5.39,0-10.26,.85-14.49,2.54-4.25,1.69-7.89,4.02-10.82,6.93-2.96,2.93-5.2,6.41-6.68,10.35-1.45,3.86-2.18,7.97-2.18,12.21v20.57c0,4.32,.73,8.45,2.18,12.28,1.48,3.89,3.72,7.35,6.68,10.28,2.93,2.9,6.57,5.23,10.82,6.93,4.23,1.69,9.1,2.54,14.49,2.54,3.66,0,7.1-.39,10.25-1.16,3.15-.77,5.95-1.81,8.32-3.07,2.54-1.35,4.57-2.98,6.03-4.83,1.65-2.09,2.49-4.37,2.49-6.78,0-2.15-.73-4.09-2.12-5.61-1.48-1.61-3.6-2.43-6.31-2.43-.95,0-1.79,.05-2.51,.14-.82,.1-1.65,.29-2.45,.57-.69,.24-1.46,.57-2.3,1-.75,.38-1.63,.86-2.5,1.36-1.15,.58-2.38,1.03-3.65,1.32-1.28,.29-3.08,.44-5.36,.44-3.45,0-6.3-.97-8.74-2.97-2.24-1.84-3.32-4.81-3.32-9.09v-22.34c0-4.29,1.09-7.28,3.34-9.16Z"/><path class="cls-1" d="M760.58,61c-3.07-3.07-6.95-5.52-11.54-7.26-4.52-1.71-9.93-2.58-16.08-2.58s-11.43,.87-15.95,2.58c-4.59,1.74-8.46,4.19-11.49,7.28-3.05,3.1-5.34,6.79-6.8,10.97-1.43,4.08-2.16,8.52-2.16,13.21v16.55c0,4.69,.73,9.14,2.16,13.21,1.47,4.19,3.76,7.88,6.8,10.98,3.04,3.09,6.91,5.53,11.49,7.27,4.51,1.71,9.88,2.58,15.95,2.58s11.56-.87,16.08-2.58c4.58-1.73,8.47-4.17,11.54-7.25,3.1-3.1,5.42-6.8,6.89-11,1.43-4.08,2.16-8.52,2.16-13.21v-16.55c0-4.68-.73-9.13-2.16-13.21-1.47-4.19-3.79-7.89-6.89-10.99Zm-12.94,24.2v16.67c0,5.43-1.2,9.22-3.58,11.27-2.52,2.17-6.25,3.27-11.1,3.27s-8.4-1.11-11.01-3.3c-2.44-2.05-3.68-5.83-3.68-11.24v-16.67c0-5.41,1.24-9.19,3.68-11.24,2.61-2.19,6.31-3.3,11.01-3.3s8.58,1.1,11.1,3.28c2.38,2.05,3.58,5.84,3.58,11.26Z"/><path class="cls-1" d="M847.18,53.65c-1.96-1.65-4.47-2.49-7.45-2.49-3.22,0-5.87,.83-7.87,2.46-2.74,2.24-3.32,4.72-3.32,6.4v35.58l-29.07-38.23c-.65-1.65-1.84-3.08-3.56-4.27-1.87-1.29-4.14-1.95-6.74-1.95-3.12,0-5.73,.82-7.77,2.43-2.83,2.24-3.42,4.73-3.42,6.44V126.92c0,1.7,.59,4.2,3.43,6.44,2.04,1.61,4.65,2.43,7.76,2.43s5.61-.84,7.58-2.49c2.66-2.24,3.21-4.7,3.21-6.37v-34.92l29.14,38.06,.28,.42c.85,1.65,2.2,2.97,4.02,3.92,1.75,.92,3.88,1.39,6.34,1.39,2.97,0,5.48-.84,7.45-2.49,2.66-2.23,3.21-4.7,3.21-6.37V60.02c0-1.67-.56-4.14-3.21-6.37Z"/></g><path class="cls-2" d="M231.25,161.78c-4.67,7.7-12.78,13.03-22.18,13.79h-41.07c-7.67,0-7.49-6.66-7.49-6.66v-45.07c.09-6.96,6.61-6.97,6.61-6.97l66.98,.02c8.38,0,13.85-1.29,17.42-2.94l-20.26,47.83ZM106.57,20.49s-7.26-9.03-17.36-9.35c0,0,4.88-1.87,9.52-1.96h56.64s9.29-.13,14.82,6.09l77.94,78.67c11.08,13.16-9.18,13.57-9.18,13.57h-57.69L106.57,20.49Zm-29.42,87.02H21.81s-18.67,.61-7.94-13.57L74.95,22.5s10.59-11.4,24.9,3.64l24.1,27.96-46.8,53.4Zm18.68,9.37s6.52,.02,6.61,6.97v45.07s.17,6.66-7.5,6.66H54.72c-9.78-.49-18.25-5.92-23.06-13.85L11.43,113.95c3.57,1.66,9.04,2.94,17.43,2.94l66.97-.02Zm162.75-25.05c-.18-.17-.32-.37-.49-.54L177.05,9.03C169.06,.25,157.13,.02,155.33,0h-56.78c-6.13,.12-12.07,2.36-12.74,2.58-8.56,2.78-15.23,10.8-15.75,11.35-.1,.11-.19,.22-.29,.33L4.37,91.81c-.11,.13-.2,.25-.3,.38-7.83,9.86-2.08,23.35-1.27,25.28l20.23,47.78c.17,.41,.37,.8,.6,1.17,6.58,10.84,18.02,17.69,30.62,18.32,.16,0,.31,.01,.48,.01h40.22c6.28,0,10.16-2.58,12.31-4.75,4.22-4.25,4.54-9.57,4.54-11.09v-45.18c-.13-10.39-8.31-16.02-15.96-16.04h-5.71l39.57-46.05,39.55,46.05h-2.14c-7.63,.02-15.81,5.65-15.93,16.04,0,.04,0,.08,0,.11v45.07c0,1.52,.32,6.84,4.53,11.09,2.15,2.17,6.03,4.75,12.31,4.75h41.07c.25,0,.51-.01,.77-.03,12.1-.98,23.11-7.8,29.45-18.25,.23-.38,.43-.77,.6-1.17l20.26-47.83c.84-1.98,8.98-15.41-1.56-25.65"/><g><path class="cls-1" d="M280.16,169.49c0-1.53,.21-2.96,.63-4.3,.42-1.34,1.08-2.52,1.99-3.54,.91-1.02,2.07-1.81,3.48-2.39,1.41-.58,3.11-.86,5.09-.86,1.71,0,3.19,.23,4.43,.69,1.24,.46,2.25,1.08,3.02,1.86,.44,.44,.67,.99,.71,1.65,.03,.66-.11,1.25-.43,1.75-.32,.51-.81,.86-1.46,1.07-.65,.2-1.45,.07-2.39-.41-.5-.27-1.06-.52-1.66-.74-.6-.22-1.34-.33-2.22-.33-1.75,0-3.06,.53-3.93,1.58-.87,1.05-1.31,2.48-1.31,4.27v3.66c0,1.8,.44,3.22,1.31,4.27,.87,1.05,2.18,1.58,3.93,1.58,.87,0,1.66-.09,2.37-.28,.71-.19,1.26-.4,1.66-.64,.71-.37,1.37-.5,1.99-.38,.62,.12,1.12,.39,1.49,.81,.37,.42,.59,.93,.65,1.53,.07,.59-.12,1.2-.55,1.81-.64,.88-1.65,1.55-3.05,2.01-1.39,.46-2.91,.69-4.56,.69-1.98,0-3.68-.29-5.09-.86-1.41-.58-2.57-1.37-3.48-2.39-.91-1.02-1.57-2.2-1.99-3.54-.42-1.34-.63-2.77-.63-4.3v-4.27Z"/><path class="cls-1" d="M303.78,170.05c0-1.59,.23-3.09,.68-4.5,.45-1.41,1.14-2.65,2.07-3.71,.92-1.07,2.11-1.91,3.55-2.52,1.44-.61,3.16-.92,5.14-.92s3.64,.31,5.09,.92c1.44,.61,2.64,1.45,3.58,2.52,.94,1.07,1.64,2.31,2.09,3.71,.45,1.41,.68,2.91,.68,4.5v3.51c0,1.53-.23,2.97-.68,4.32-.45,1.36-1.15,2.54-2.09,3.56-.94,1.02-2.13,1.82-3.58,2.42-1.44,.59-3.14,.89-5.09,.89s-3.69-.3-5.14-.89c-1.44-.59-2.63-1.4-3.55-2.42-.92-1.02-1.61-2.2-2.07-3.56-.45-1.36-.68-2.8-.68-4.32v-3.51Zm5.94,3.56c0,1.87,.49,3.31,1.46,4.32,.97,1.02,2.32,1.53,4.03,1.53s3.06-.51,4.03-1.53c.97-1.02,1.46-2.46,1.46-4.32v-3.66c0-2.03-.49-3.58-1.46-4.63-.97-1.05-2.32-1.58-4.03-1.58s-3.06,.53-4.03,1.58c-.97,1.05-1.46,2.59-1.46,4.63v3.66Z"/><path class="cls-1" d="M344.08,158.4c1.85,0,3.47,.25,4.86,.76,1.39,.51,2.56,1.23,3.5,2.16,.94,.93,1.65,2.06,2.12,3.38,.47,1.32,.71,2.78,.71,4.38v13.38c0,.61-.29,1.16-.86,1.65-.57,.49-1.29,.74-2.17,.74s-1.58-.25-2.12-.74c-.54-.49-.81-1.04-.81-1.65v-13.07c0-1.86-.5-3.24-1.49-4.12-.99-.88-2.24-1.32-3.75-1.32s-2.77,.44-3.78,1.32c-1.01,.88-1.51,2.26-1.51,4.12v13.07c0,.61-.26,1.16-.78,1.65-.52,.49-1.22,.74-2.09,.74s-1.64-.25-2.19-.74-.83-1.04-.83-1.65v-12.87c0-1.59,.23-3.08,.71-4.45,.47-1.37,1.18-2.56,2.12-3.56,.94-1,2.11-1.78,3.5-2.34,1.39-.56,3.01-.84,4.86-.84Z"/><path class="cls-1" d="M361.51,181.19c-.1-.2-.17-.46-.2-.76-.03-.31,0-.61,.08-.92,.08-.31,.22-.59,.4-.86,.18-.27,.44-.47,.78-.61,.47-.2,.88-.31,1.23-.31s.66,.06,.93,.18c.27,.12,.52,.27,.76,.46,.23,.19,.47,.36,.71,.53,.97,.75,2.5,1.12,4.58,1.12,1.08,0,1.94-.24,2.59-.71,.66-.47,.98-1.1,.98-1.88s-.3-1.4-.91-1.86c-.6-.46-1.37-.85-2.29-1.17-.92-.32-1.91-.64-2.97-.97-1.06-.32-2.05-.76-2.97-1.32-.92-.56-1.69-1.28-2.29-2.16-.6-.88-.91-2.07-.91-3.56,0-2.37,.82-4.3,2.47-5.77,1.65-1.48,3.91-2.21,6.8-2.21,1.28,0,2.38,.11,3.33,.33,.94,.22,1.72,.48,2.34,.79s1.11,.64,1.46,.99c.35,.36,.6,.69,.73,.99,.23,.48,.33,1.03,.28,1.65-.05,.63-.31,1.11-.78,1.45-.67,.44-1.29,.58-1.86,.43-.57-.15-1.09-.36-1.56-.64-.27-.13-.7-.33-1.29-.58s-1.47-.38-2.64-.38c-1.08,0-1.89,.26-2.44,.79-.55,.53-.83,1.18-.83,1.96,0,.64,.29,1.14,.88,1.5,.59,.36,1.33,.68,2.22,.97,.89,.29,1.85,.59,2.9,.92,1.04,.32,2.01,.78,2.9,1.37,.89,.59,1.63,1.38,2.22,2.37,.59,.98,.88,2.26,.88,3.81,0,2.37-.82,4.26-2.47,5.65-1.65,1.39-3.9,2.09-6.75,2.09-1.04,0-2.06-.09-3.05-.28-.99-.19-1.9-.45-2.72-.79-.82-.34-1.54-.73-2.14-1.17-.6-.44-1.06-.92-1.36-1.42Z"/><path class="cls-1" d="M385.24,170.05c0-1.59,.23-3.09,.68-4.5,.45-1.41,1.14-2.65,2.07-3.71s2.11-1.91,3.55-2.52c1.44-.61,3.16-.92,5.14-.92s3.64,.31,5.09,.92,2.64,1.45,3.58,2.52c.94,1.07,1.64,2.31,2.09,3.71,.45,1.41,.68,2.91,.68,4.5v3.51c0,1.53-.23,2.97-.68,4.32-.45,1.36-1.15,2.54-2.09,3.56-.94,1.02-2.13,1.82-3.58,2.42-1.44,.59-3.14,.89-5.09,.89s-3.7-.3-5.14-.89c-1.44-.59-2.63-1.4-3.55-2.42-.92-1.02-1.61-2.2-2.07-3.56-.45-1.36-.68-2.8-.68-4.32v-3.51Zm5.94,3.56c0,1.87,.49,3.31,1.46,4.32,.97,1.02,2.32,1.53,4.03,1.53s3.05-.51,4.03-1.53c.97-1.02,1.46-2.46,1.46-4.32v-3.66c0-2.03-.49-3.58-1.46-4.63-.97-1.05-2.32-1.58-4.03-1.58s-3.06,.53-4.03,1.58c-.97,1.05-1.46,2.59-1.46,4.63v3.66Zm5.99-18.92c-.4,.17-.86,.13-1.38-.13-.52-.25-.92-.65-1.18-1.2-.27-.54-.31-1.08-.13-1.6,.18-.53,.46-.87,.83-1.04l7.1-3.82c.71-.31,1.36-.28,1.96,.08,.6,.36,1.05,.84,1.33,1.45,.29,.61,.37,1.25,.25,1.93-.12,.68-.53,1.17-1.23,1.48l-7.56,2.85Z"/><path class="cls-1" d="M425.24,163.95c-.74,0-1.41,.05-2.01,.15-.6,.1-1.12,.31-1.54,.61s-.74,.75-.96,1.32c-.22,.58-.33,1.32-.33,2.24v14.19c0,.61-.26,1.16-.78,1.65s-1.22,.74-2.09,.74-1.64-.25-2.19-.74c-.55-.49-.83-1.04-.83-1.65v-13.99c0-3.22,.86-5.71,2.57-7.45,1.71-1.75,4.43-2.62,8.16-2.62,1.71,0,3.01,.34,3.9,1.02,.89,.68,1.23,1.63,1.03,2.85-.1,.61-.32,1.04-.66,1.3s-.74,.41-1.21,.46-.97,.05-1.51,0c-.54-.05-1.06-.08-1.56-.08Z"/><path class="cls-1" d="M433.35,169.49c0-1.53,.21-2.96,.63-4.3,.42-1.34,1.08-2.52,1.99-3.54,.91-1.02,2.07-1.81,3.48-2.39,1.41-.58,3.11-.86,5.09-.86,1.71,0,3.19,.23,4.43,.69,1.24,.46,2.25,1.08,3.02,1.86,.44,.44,.67,.99,.71,1.65,.03,.66-.11,1.25-.43,1.75-.32,.51-.81,.86-1.46,1.07-.66,.2-1.45,.07-2.39-.41-.5-.27-1.06-.52-1.66-.74-.6-.22-1.34-.33-2.22-.33-1.75,0-3.06,.53-3.93,1.58-.87,1.05-1.31,2.48-1.31,4.27v3.66c0,1.8,.44,3.22,1.31,4.27,.87,1.05,2.18,1.58,3.93,1.58,.87,0,1.66-.09,2.37-.28,.71-.19,1.26-.4,1.66-.64,.71-.37,1.37-.5,1.99-.38,.62,.12,1.12,.39,1.49,.81,.37,.42,.59,.93,.65,1.53,.07,.59-.12,1.2-.55,1.81-.64,.88-1.65,1.55-3.05,2.01-1.39,.46-2.91,.69-4.56,.69-1.98,0-3.68-.29-5.09-.86-1.41-.58-2.57-1.37-3.48-2.39-.91-1.02-1.57-2.2-1.99-3.54-.42-1.34-.63-2.77-.63-4.3v-4.27Z"/><path class="cls-1" d="M458.23,151.67c0-.61,.28-1.15,.83-1.64,.55-.49,1.28-.73,2.19-.73s1.57,.24,2.09,.73c.52,.49,.78,1.03,.78,1.64v1.21c0,.61-.26,1.15-.78,1.64-.52,.49-1.22,.73-2.09,.73s-1.64-.24-2.19-.73c-.55-.49-.83-1.03-.83-1.64v-1.21Zm0,9.13c0-.61,.28-1.16,.83-1.65,.55-.49,1.28-.74,2.19-.74s1.57,.25,2.09,.74c.52,.49,.78,1.04,.78,1.65v21.67c0,.61-.26,1.16-.78,1.65s-1.22,.74-2.09,.74-1.64-.25-2.19-.74c-.55-.49-.83-1.04-.83-1.65v-21.67Z"/><path class="cls-1" d="M470.87,170.05c0-1.59,.23-3.09,.68-4.5,.45-1.41,1.14-2.65,2.07-3.71s2.11-1.91,3.55-2.52c1.44-.61,3.16-.92,5.14-.92s3.64,.31,5.09,.92,2.64,1.45,3.58,2.52c.94,1.07,1.64,2.31,2.09,3.71,.45,1.41,.68,2.91,.68,4.5v3.51c0,1.53-.23,2.97-.68,4.32-.45,1.36-1.15,2.54-2.09,3.56-.94,1.02-2.13,1.82-3.58,2.42-1.44,.59-3.14,.89-5.09,.89s-3.7-.3-5.14-.89c-1.44-.59-2.63-1.4-3.55-2.42-.92-1.02-1.61-2.2-2.07-3.56-.45-1.36-.68-2.8-.68-4.32v-3.51Zm5.94,3.56c0,1.87,.49,3.31,1.46,4.32,.97,1.02,2.32,1.53,4.03,1.53s3.05-.51,4.03-1.53c.97-1.02,1.46-2.46,1.46-4.32v-3.66c0-2.03-.49-3.58-1.46-4.63-.97-1.05-2.32-1.58-4.03-1.58s-3.06,.53-4.03,1.58c-.97,1.05-1.46,2.59-1.46,4.63v3.66Z"/><path class="cls-1" d="M533.69,168.73c0,1.59-.3,2.71-.91,3.36-.6,.64-1.61,.97-3.02,.97h-11.94v1.32c0,1.63,.5,2.93,1.49,3.92,.99,.98,2.39,1.48,4.21,1.48,.91,0,1.74-.06,2.49-.18,.76-.12,1.35-.28,1.79-.48,.47-.24,.92-.47,1.36-.71,.44-.24,.84-.36,1.21-.36,.67,0,1.19,.2,1.56,.61,.37,.41,.57,.93,.6,1.58,0,.54-.24,1.09-.71,1.63-.47,.54-1.11,1.04-1.91,1.48-.81,.44-1.76,.81-2.85,1.09-1.09,.29-2.26,.43-3.5,.43-1.71,0-3.27-.27-4.68-.81s-2.63-1.27-3.65-2.19-1.82-1.99-2.39-3.23c-.57-1.24-.86-2.55-.86-3.94v-5.39c0-1.49,.28-2.9,.83-4.22,.55-1.32,1.32-2.48,2.29-3.46,.97-.98,2.13-1.76,3.48-2.34,1.34-.58,2.82-.86,4.43-.86,1.91,0,3.54,.31,4.89,.94,1.34,.63,2.44,1.44,3.3,2.44,.86,1,1.49,2.11,1.89,3.33,.4,1.22,.6,2.42,.6,3.61Zm-10.73-5.39c-1.51,0-2.71,.48-3.6,1.45-.89,.97-1.4,2.25-1.54,3.84h10.28v-.76c0-1.39-.48-2.49-1.44-3.31-.96-.81-2.19-1.22-3.7-1.22Z"/><path class="cls-1" d="M553.18,151.67c0-.61,.28-1.15,.83-1.64,.55-.49,1.28-.73,2.19-.73s1.57,.24,2.09,.73c.52,.49,.78,1.03,.78,1.64v1.21c0,.61-.26,1.15-.78,1.64-.52,.49-1.22,.73-2.09,.73s-1.64-.24-2.19-.73c-.55-.49-.83-1.03-.83-1.64v-1.21Zm0,9.13c0-.61,.28-1.16,.83-1.65,.55-.49,1.28-.74,2.19-.74s1.57,.25,2.09,.74c.52,.49,.78,1.04,.78,1.65v21.67c0,.61-.26,1.16-.78,1.65s-1.22,.74-2.09,.74-1.64-.25-2.19-.74c-.55-.49-.83-1.04-.83-1.65v-21.67Z"/><path class="cls-1" d="M577.77,158.4c1.85,0,3.47,.25,4.86,.76,1.39,.51,2.56,1.23,3.5,2.16,.94,.93,1.65,2.06,2.12,3.38,.47,1.32,.71,2.78,.71,4.38v13.38c0,.61-.29,1.16-.86,1.65-.57,.49-1.29,.74-2.17,.74s-1.58-.25-2.12-.74-.81-1.04-.81-1.65v-13.07c0-1.86-.5-3.24-1.49-4.12-.99-.88-2.24-1.32-3.75-1.32s-2.77,.44-3.78,1.32c-1.01,.88-1.51,2.26-1.51,4.12v13.07c0,.61-.26,1.16-.78,1.65-.52,.49-1.22,.74-2.09,.74s-1.64-.25-2.19-.74-.83-1.04-.83-1.65v-12.87c0-1.59,.23-3.08,.71-4.45,.47-1.37,1.17-2.56,2.12-3.56,.94-1,2.11-1.78,3.5-2.34,1.39-.56,3.01-.84,4.86-.84Z"/><path class="cls-1" d="M609.3,182.72c-.17,.58-.55,1.08-1.16,1.5-.6,.42-1.31,.64-2.12,.64s-1.55-.21-2.14-.64c-.59-.42-.97-.92-1.13-1.5l-8.11-21.06c-.17-.58-.07-1.18,.3-1.81,.37-.63,1.01-1.06,1.91-1.3,.84-.2,1.59-.14,2.24,.2,.65,.34,1.07,.8,1.23,1.37l5.69,17.3,5.64-17.3c.2-.58,.63-1.03,1.28-1.37,.66-.34,1.39-.41,2.19-.2,.91,.24,1.55,.67,1.94,1.3,.39,.63,.5,1.23,.33,1.81l-8.11,21.06Z"/><path class="cls-1" d="M643.96,168.73c0,1.59-.3,2.71-.91,3.36-.6,.64-1.61,.97-3.02,.97h-11.94v1.32c0,1.63,.5,2.93,1.49,3.92,.99,.98,2.39,1.48,4.21,1.48,.91,0,1.74-.06,2.49-.18,.76-.12,1.35-.28,1.79-.48,.47-.24,.92-.47,1.36-.71,.44-.24,.84-.36,1.21-.36,.67,0,1.19,.2,1.56,.61,.37,.41,.57,.93,.6,1.58,0,.54-.24,1.09-.71,1.63-.47,.54-1.11,1.04-1.91,1.48-.81,.44-1.76,.81-2.85,1.09-1.09,.29-2.26,.43-3.5,.43-1.71,0-3.27-.27-4.68-.81s-2.63-1.27-3.65-2.19-1.82-1.99-2.39-3.23c-.57-1.24-.86-2.55-.86-3.94v-5.39c0-1.49,.28-2.9,.83-4.22,.55-1.32,1.32-2.48,2.29-3.46,.97-.98,2.13-1.76,3.48-2.34,1.34-.58,2.82-.86,4.43-.86,1.91,0,3.54,.31,4.89,.94,1.34,.63,2.44,1.44,3.3,2.44,.86,1,1.49,2.11,1.89,3.33,.4,1.22,.6,2.42,.6,3.61Zm-10.73-5.39c-1.51,0-2.71,.48-3.6,1.45-.89,.97-1.4,2.25-1.54,3.84h10.28v-.76c0-1.39-.48-2.49-1.44-3.31-.96-.81-2.19-1.22-3.7-1.22Z"/><path class="cls-1" d="M649.35,181.19c-.1-.2-.17-.46-.2-.76-.03-.31,0-.61,.08-.92s.22-.59,.4-.86c.18-.27,.44-.47,.78-.61,.47-.2,.88-.31,1.23-.31s.66,.06,.93,.18c.27,.12,.52,.27,.76,.46,.23,.19,.47,.36,.71,.53,.97,.75,2.5,1.12,4.58,1.12,1.08,0,1.94-.24,2.59-.71,.66-.47,.98-1.1,.98-1.88s-.3-1.4-.91-1.86c-.6-.46-1.37-.85-2.29-1.17-.92-.32-1.91-.64-2.97-.97-1.06-.32-2.05-.76-2.97-1.32s-1.69-1.28-2.29-2.16c-.6-.88-.91-2.07-.91-3.56,0-2.37,.82-4.3,2.47-5.77,1.64-1.48,3.91-2.21,6.8-2.21,1.28,0,2.38,.11,3.33,.33,.94,.22,1.72,.48,2.34,.79s1.11,.64,1.46,.99c.35,.36,.6,.69,.73,.99,.23,.48,.33,1.03,.28,1.65-.05,.63-.31,1.11-.78,1.45-.67,.44-1.29,.58-1.86,.43-.57-.15-1.09-.36-1.56-.64-.27-.13-.7-.33-1.29-.58s-1.47-.38-2.64-.38c-1.08,0-1.89,.26-2.44,.79-.55,.53-.83,1.18-.83,1.96,0,.64,.29,1.14,.88,1.5,.59,.36,1.33,.68,2.22,.97,.89,.29,1.85,.59,2.9,.92,1.04,.32,2.01,.78,2.9,1.37,.89,.59,1.63,1.38,2.22,2.37,.59,.98,.88,2.26,.88,3.81,0,2.37-.82,4.26-2.47,5.65-1.65,1.39-3.9,2.09-6.75,2.09-1.04,0-2.06-.09-3.05-.28-.99-.19-1.9-.45-2.72-.79-.82-.34-1.54-.73-2.14-1.17-.6-.44-1.06-.92-1.36-1.42Z"/><path class="cls-1" d="M675.49,158.91v-5.24c0-.61,.27-1.16,.81-1.65,.54-.49,1.28-.74,2.22-.74,.87,0,1.57,.25,2.09,.74,.52,.49,.78,1.04,.78,1.65v5.24h3.73c.57,0,1.07,.21,1.51,.64,.44,.42,.66,.98,.66,1.65,0,.75-.22,1.33-.66,1.75-.44,.42-.94,.64-1.51,.64h-3.73v12.31c0,1.42,.18,2.39,.55,2.9,.37,.51,.91,.76,1.61,.76s1.24-.06,1.71-.18c.47-.12,1.01-.18,1.61-.18,.77,0,1.33,.21,1.69,.64,.35,.42,.53,1.01,.53,1.75,0,.64-.17,1.17-.5,1.58-.34,.41-.78,.74-1.33,.99-.55,.25-1.19,.43-1.91,.53-.72,.1-1.49,.15-2.29,.15-2.62,0-4.53-.69-5.74-2.06-1.21-1.37-1.81-3.74-1.81-7.1v-12.11h-2.01c-.57,0-1.08-.21-1.51-.64-.44-.42-.65-1.01-.65-1.75,0-.68,.22-1.23,.65-1.65,.44-.42,.94-.64,1.51-.64h2.01Z"/><path class="cls-1" d="M695.14,151.67c0-.61,.28-1.15,.83-1.64,.55-.49,1.28-.73,2.19-.73s1.57,.24,2.09,.73c.52,.49,.78,1.03,.78,1.64v1.21c0,.61-.26,1.15-.78,1.64-.52,.49-1.22,.73-2.09,.73s-1.64-.24-2.19-.73c-.55-.49-.83-1.03-.83-1.64v-1.21Zm0,9.13c0-.61,.28-1.16,.83-1.65,.55-.49,1.28-.74,2.19-.74s1.57,.25,2.09,.74c.52,.49,.78,1.04,.78,1.65v21.67c0,.61-.26,1.16-.78,1.65s-1.22,.74-2.09,.74-1.64-.25-2.19-.74c-.55-.49-.83-1.04-.83-1.65v-21.67Z"/><path class="cls-1" d="M734.18,158.45c1.95,0,3.56,.28,4.84,.84,1.28,.56,2.28,1.34,3.02,2.34,.74,1,1.26,2.19,1.56,3.56,.3,1.37,.45,2.86,.45,4.45v12.82c0,.61-.27,1.16-.81,1.65-.54,.49-1.28,.74-2.22,.74-.84,0-1.52-.25-2.04-.74-.52-.49-.78-1.04-.78-1.65v-13.02c0-1.86-.34-3.24-1.03-4.12-.69-.88-1.86-1.32-3.5-1.32-2.92,0-4.38,1.81-4.38,5.44v13.23l-.1,.46-.1,.15c-.03,.07-.06,.13-.08,.18s-.06,.11-.12,.18c-.24,.34-.55,.62-.96,.84-.4,.22-.87,.35-1.41,.38h-.25c-.77,0-1.41-.19-1.91-.56-.5-.37-.82-.83-.96-1.37l-.05-.1v-13.38c0-3.63-1.46-5.44-4.38-5.44-1.68,0-2.86,.44-3.53,1.32-.67,.88-1.01,2.26-1.01,4.12v13.02c0,.61-.26,1.16-.78,1.65-.52,.49-1.22,.74-2.09,.74s-1.64-.25-2.19-.74-.83-1.04-.83-1.65v-12.82c0-1.59,.15-3.08,.45-4.45,.3-1.37,.83-2.56,1.59-3.56,.76-1,1.77-1.78,3.05-2.34,1.28-.56,2.89-.84,4.84-.84s3.55,.36,4.81,1.09c1.26,.73,2.26,1.69,3,2.87,.77-1.19,1.78-2.14,3.02-2.87,1.24-.73,2.87-1.09,4.89-1.09Z"/><path class="cls-1" d="M771.91,168.73c0,1.59-.3,2.71-.91,3.36-.6,.64-1.61,.97-3.02,.97h-11.94v1.32c0,1.63,.5,2.93,1.49,3.92,.99,.98,2.39,1.48,4.21,1.48,.91,0,1.74-.06,2.49-.18,.76-.12,1.35-.28,1.79-.48,.47-.24,.92-.47,1.36-.71,.44-.24,.84-.36,1.21-.36,.67,0,1.19,.2,1.56,.61,.37,.41,.57,.93,.6,1.58,0,.54-.24,1.09-.71,1.63-.47,.54-1.11,1.04-1.91,1.48-.81,.44-1.76,.81-2.85,1.09-1.09,.29-2.26,.43-3.5,.43-1.71,0-3.27-.27-4.68-.81s-2.63-1.27-3.65-2.19-1.82-1.99-2.39-3.23c-.57-1.24-.86-2.55-.86-3.94v-5.39c0-1.49,.28-2.9,.83-4.22,.55-1.32,1.32-2.48,2.29-3.46,.97-.98,2.13-1.76,3.48-2.34,1.34-.58,2.82-.86,4.43-.86,1.91,0,3.54,.31,4.89,.94,1.34,.63,2.44,1.44,3.3,2.44,.86,1,1.49,2.11,1.89,3.33,.4,1.22,.6,2.42,.6,3.61Zm-10.73-5.39c-1.51,0-2.71,.48-3.6,1.45-.89,.97-1.4,2.25-1.54,3.84h10.28v-.76c0-1.39-.48-2.49-1.44-3.31-.96-.81-2.19-1.22-3.7-1.22Z"/><path class="cls-1" d="M789.23,158.4c1.85,0,3.47,.25,4.86,.76,1.39,.51,2.56,1.23,3.5,2.16,.94,.93,1.65,2.06,2.12,3.38,.47,1.32,.71,2.78,.71,4.38v13.38c0,.61-.29,1.16-.86,1.65-.57,.49-1.29,.74-2.17,.74s-1.58-.25-2.12-.74-.81-1.04-.81-1.65v-13.07c0-1.86-.5-3.24-1.49-4.12-.99-.88-2.24-1.32-3.75-1.32s-2.77,.44-3.78,1.32c-1.01,.88-1.51,2.26-1.51,4.12v13.07c0,.61-.26,1.16-.78,1.65-.52,.49-1.22,.74-2.09,.74s-1.64-.25-2.19-.74-.83-1.04-.83-1.65v-12.87c0-1.59,.23-3.08,.71-4.45,.47-1.37,1.17-2.56,2.12-3.56,.94-1,2.11-1.78,3.5-2.34,1.39-.56,3.01-.84,4.86-.84Z"/><path class="cls-1" d="M809.08,158.91v-5.24c0-.61,.27-1.16,.81-1.65,.54-.49,1.28-.74,2.22-.74,.87,0,1.57,.25,2.09,.74,.52,.49,.78,1.04,.78,1.65v5.24h3.73c.57,0,1.07,.21,1.51,.64,.44,.42,.66,.98,.66,1.65,0,.75-.22,1.33-.66,1.75-.44,.42-.94,.64-1.51,.64h-3.73v12.31c0,1.42,.18,2.39,.55,2.9,.37,.51,.91,.76,1.61,.76s1.24-.06,1.71-.18c.47-.12,1.01-.18,1.61-.18,.77,0,1.33,.21,1.69,.64,.35,.42,.53,1.01,.53,1.75,0,.64-.17,1.17-.5,1.58-.34,.41-.78,.74-1.33,.99-.55,.25-1.19,.43-1.91,.53-.72,.1-1.49,.15-2.29,.15-2.62,0-4.53-.69-5.74-2.06-1.21-1.37-1.81-3.74-1.81-7.1v-12.11h-2.01c-.57,0-1.08-.21-1.51-.64-.44-.42-.65-1.01-.65-1.75,0-.68,.22-1.23,.65-1.65,.44-.42,.94-.64,1.51-.64h2.01Z"/><path class="cls-1" d="M827.47,170.05c0-1.59,.23-3.09,.68-4.5,.45-1.41,1.14-2.65,2.07-3.71s2.11-1.91,3.55-2.52c1.44-.61,3.16-.92,5.14-.92s3.64,.31,5.09,.92,2.64,1.45,3.58,2.52c.94,1.07,1.64,2.31,2.09,3.71,.45,1.41,.68,2.91,.68,4.5v3.51c0,1.53-.23,2.97-.68,4.32-.45,1.36-1.15,2.54-2.09,3.56-.94,1.02-2.13,1.82-3.58,2.42-1.44,.59-3.14,.89-5.09,.89s-3.7-.3-5.14-.89c-1.44-.59-2.63-1.4-3.55-2.42-.92-1.02-1.61-2.2-2.07-3.56-.45-1.36-.68-2.8-.68-4.32v-3.51Zm5.94,3.56c0,1.87,.49,3.31,1.46,4.32,.97,1.02,2.32,1.53,4.03,1.53s3.05-.51,4.03-1.53c.97-1.02,1.46-2.46,1.46-4.32v-3.66c0-2.03-.49-3.58-1.46-4.63-.97-1.05-2.32-1.58-4.03-1.58s-3.06,.53-4.03,1.58c-.97,1.05-1.46,2.59-1.46,4.63v3.66Z"/></g></svg>